<?xml version="1.0" encoding="UTF-8" standalone="no"?>
<!DOCTYPE svg PUBLIC "-//W3C//DTD SVG 1.1//EN" "http://www.w3.org/Graphics/SVG/1.1/DTD/svg11.dtd">
<svg width="100%" height="100%" viewBox="0 0 1000 1000" version="1.1" xmlns="http://www.w3.org/2000/svg" xmlns:xlink="http://www.w3.org/1999/xlink" xml:space="preserve" xmlns:serif="http://www.serif.com/" style="fill-rule:evenodd;clip-rule:evenodd;stroke-linecap:round;stroke-linejoin:round;stroke-miterlimit:1.5;">
    <g transform="matrix(1,0,0,1,97.6194,106.722)">
        <rect x="109.686" y="37.018" width="585.389" height="712.519" style="fill:rgb(235,235,235);stroke:black;stroke-width:20px;"/>
    </g>
    <g transform="matrix(0.761255,0,0,0.761255,84.8542,-59.3729)">
        <path d="M333.273,472.579C324.862,484.453 320.574,495.091 320.409,504.491L320.409,584.395C322.388,598.249 330.593,610.907 345.023,622.369C359.454,633.831 372.936,639.562 385.47,639.562C410.868,639.562 430.782,630.615 445.213,612.721C459.644,594.827 466.859,569.882 466.859,537.888C466.859,468.291 441.873,433.492 391.902,433.492C371.782,433.492 352.239,446.521 333.273,472.579ZM320.409,452.788C320.409,454.767 321.027,455.839 322.264,456.004C323.501,456.169 324.449,455.757 325.109,454.767C337.313,439.265 349.806,427.514 362.587,419.515C375.369,411.517 390.913,407.517 409.219,407.517C443.687,407.517 470.034,417.825 488.257,438.44C506.481,459.055 515.593,487.092 515.593,522.55C515.593,566.089 501.41,601.795 473.043,629.666C450.779,650.611 422.742,661.001 388.934,660.836C361.227,660.836 338.385,651.106 320.409,631.645L320.409,709.571C320.409,730.186 323.13,742.761 328.572,747.296C334.015,751.832 348.528,754.594 372.112,755.584C373.761,757.233 374.585,760.449 374.585,765.232C374.585,770.014 373.761,773.065 372.112,774.385C343.085,773.725 318.595,773.395 298.639,773.395C284.456,773.395 263.181,773.725 234.815,774.385C233.495,773.065 232.836,770.056 232.836,765.355C232.836,760.655 233.495,757.398 234.815,755.584C251.637,754.924 262.769,752.079 268.211,747.049C273.654,742.019 276.375,729.526 276.375,709.571L276.375,476.537C276.375,461.034 273.612,451.18 268.088,446.975C262.563,442.769 251.472,439.759 234.815,437.945C232.836,430.854 232.341,425.659 233.33,422.36C267.799,417.907 293.609,412.3 310.761,405.538C313.729,405.538 315.956,407.105 317.44,410.239C319.419,415.021 320.409,429.205 320.409,452.788Z" style="fill-rule:nonzero;stroke:black;stroke-width:1.31px;stroke-linecap:butt;stroke-miterlimit:2;"/>
        <path d="M769.654,585.88L769.654,478.516C769.654,469.775 769.077,463.714 767.923,460.333C766.768,456.953 764.129,452.871 760.006,448.088C754.564,441.986 746.194,437.162 734.897,433.616C723.6,430.07 712.262,428.297 700.882,428.297C672.846,428.297 652.23,437.616 639.037,456.252C627.492,470.765 621.72,495.75 621.72,531.208C621.72,563.698 629.842,589.137 646.087,607.526C662.332,625.914 679.69,635.109 698.161,635.109C706.572,635.109 716.632,632.676 728.342,627.811C740.051,622.946 750.771,616.225 760.501,607.649C766.603,602.207 769.654,594.95 769.654,585.88ZM763.717,627.44C736.01,650.034 708.963,661.414 682.576,661.579C650.746,661.579 625.06,650.323 605.516,627.811C585.973,605.299 576.202,576.479 576.202,541.351C576.202,500.451 589.89,467.219 617.267,441.656C642.665,419.392 672.516,408.26 706.819,408.26C712.592,408.26 720.137,409.002 729.455,410.486C738.773,411.97 746.895,413.455 753.822,414.939C760.749,416.423 764.377,417.165 764.707,417.165C768.005,417.165 769.654,415.516 769.654,412.218L769.654,372.637C769.654,354.33 767.304,342.992 762.604,338.622C757.904,334.251 746.071,331.736 727.105,331.076C723.311,327.283 722.322,322.253 724.136,315.986C736.01,314.997 751.719,313.059 771.262,310.173C790.805,307.286 803.463,304.607 809.235,302.133C813.688,302.133 815.915,303.864 815.915,307.328C814.595,320.851 813.853,338.58 813.688,360.515L813.688,590.085C813.688,603.279 816.162,612.143 821.11,616.679C826.057,621.214 837.602,624.636 855.743,626.945C857.063,628.594 857.763,630.944 857.846,633.996C857.928,637.047 857.228,639.314 855.743,640.799C821.934,643.437 798.516,650.117 785.487,660.836C781.694,661.826 778.478,661.826 775.839,660.836C772.046,647.973 770.149,637.005 770.149,627.935C770.314,624.306 768.17,624.141 763.717,627.44Z" style="fill-rule:nonzero;stroke:black;stroke-width:1.31px;stroke-linecap:butt;stroke-miterlimit:2;"/>
        <path d="M371.617,848.352C363.866,848.352 356.444,849.218 349.352,850.949C342.261,852.681 335.252,856.763 328.325,863.195C321.398,869.627 317.935,878.203 317.935,888.923C317.935,907.889 310.019,917.371 294.186,917.371C287.425,917.371 282.271,915.434 278.725,911.558C275.179,907.682 273.406,903.518 273.406,899.065C273.406,893.623 275.344,887.356 279.22,880.264C283.095,873.173 289.074,865.586 297.155,857.505C305.236,849.424 317.234,842.662 333.149,837.22C349.064,831.777 367.494,829.056 388.439,829.056C418.125,829.056 440.224,835.818 454.737,849.341C467.271,860.886 473.538,875.399 473.538,892.881C473.538,908.383 468.879,921.824 459.561,933.204C450.243,944.583 433.627,955.303 409.714,965.364L410.208,966.353C432.803,969.652 452.717,978.269 469.951,992.205C487.185,1006.14 495.803,1026.47 495.803,1053.18C495.803,1087.98 482.444,1115.73 455.727,1136.43C429.009,1157.13 396.767,1167.48 359,1167.48C339.045,1167.48 319.543,1163.85 300.495,1156.59C281.446,1149.33 271.922,1140.67 271.922,1130.62C271.922,1126.16 274.602,1121.91 279.962,1117.88C285.322,1113.83 291.053,1111.81 297.155,1111.81C307.215,1111.81 316.038,1116.6 323.625,1126.16C324.614,1127.48 325.851,1129.91 327.335,1133.46C328.82,1137.01 330.345,1139.6 331.912,1141.25C333.479,1142.9 336.695,1144.51 341.56,1146.08C346.425,1147.64 353.063,1148.43 361.474,1148.43C367.246,1148.43 373.349,1147.73 379.78,1146.32C386.212,1144.92 393.386,1142.28 401.303,1138.41C409.219,1134.53 416.31,1129.46 422.578,1123.19C428.845,1116.93 434.081,1108.39 438.286,1097.59C442.492,1086.79 444.594,1074.46 444.594,1060.61C444.594,1045.76 442.244,1033.43 437.544,1023.62C432.844,1013.81 426.247,1006.63 417.754,1002.1C409.26,997.564 400.725,994.472 392.15,992.823C383.574,991.174 373.513,990.349 361.969,990.349C353.228,990.349 345.477,990.679 338.715,991.339L335.746,973.527C363.453,970.229 385.388,960.54 401.55,944.46C417.712,928.38 425.793,912.424 425.793,896.591C425.793,880.099 420.805,867.936 410.827,860.103C400.849,852.269 387.779,848.352 371.617,848.352Z" style="fill-rule:nonzero;stroke:black;stroke-width:1.31px;stroke-linecap:butt;stroke-miterlimit:2;"/>
        <path d="M692.719,1098.7C692.719,1111.57 693.378,1120.68 694.698,1126.04C696.017,1131.4 698.738,1135.32 702.861,1137.79C707.314,1140.43 737.495,1142.74 793.403,1144.71C795.052,1146.37 795.918,1149.58 796,1154.36C796.083,1159.15 795.217,1162.2 793.403,1163.52C764.377,1162.86 723.559,1162.53 670.949,1162.53C639.119,1162.53 609.021,1162.86 580.655,1163.52C579.005,1162.2 578.181,1159.19 578.181,1154.49C578.181,1149.79 579.005,1146.53 580.655,1144.71C615.453,1143.73 635.243,1141.42 640.026,1137.79C645.798,1133.67 648.685,1120.64 648.685,1098.7L648.685,961.9L594.013,961.9C592.034,961.9 590.962,960.911 590.797,958.932L590.797,949.779C590.797,947.47 591.828,945.202 593.889,942.976C595.951,940.749 598.961,939.636 602.919,939.636L648.685,939.636L648.685,912.671C648.685,892.716 652.148,875.564 659.075,861.216C666.001,846.868 675.196,836.148 686.658,829.056C698.12,821.965 709.664,816.811 721.291,813.595C732.918,810.379 745.164,808.771 758.027,808.771C784.085,808.771 806.927,815.203 826.552,828.067C831.665,831.365 835.788,835.9 838.921,841.673C842.055,847.445 843.621,852.887 843.621,858C843.621,865.091 841.271,870.658 836.571,874.698C831.871,878.739 826.8,880.759 821.357,880.759C808.163,880.759 799.752,876.059 796.124,866.658C790.682,853.135 784.745,843.322 778.313,837.22C771.881,831.118 763.47,828.067 753.08,828.067C747.967,828.067 742.36,829.097 736.258,831.159C730.156,833.22 723.641,836.684 716.715,841.549C709.788,846.414 704.057,854.33 699.522,865.298C694.986,876.265 692.719,889.252 692.719,904.26L692.719,939.636L793.403,939.636C796.042,939.636 797.444,940.625 797.608,942.604L797.608,955.221C797.608,959.674 793.568,961.9 785.487,961.9L692.719,961.9L692.719,1098.7Z" style="fill-rule:nonzero;stroke:black;stroke-width:1.31px;stroke-linecap:butt;stroke-miterlimit:2;"/>
    </g>
</svg>
